<?xml version="1.0" encoding="iso-8859-1"?>
<!-- Generator: Adobe Illustrator 19.0.0, SVG Export Plug-In . SVG Version: 6.00 Build 0)  -->
<svg version="1.1" id="Layer_1" xmlns="http://www.w3.org/2000/svg" xmlns:xlink="http://www.w3.org/1999/xlink" x="0px" y="0px"
	 viewBox="0 0 512 512" style="enable-background:new 0 0 512 512;" xml:space="preserve">
<circle style="fill:#2D4452;" cx="256" cy="256" r="256"/>
<path style="fill:#233540;" d="M464.036,405.092l-96.568-235.984c-0.004-1.02-0.392-1.86-1.164-2.636l-22.624-22.54
	c-1.556-1.556-4.1-1.512-5.656,0.044l-13.496,13.516c-12.076-8.416-25.776-14.632-40.532-18.16l-8-21.008c0-2.2-1.8-3.996-4-3.996
	h-32c-2.2,0-4,1.8-4,4v2.048v2.048v15.26c-17.816,2.992-34.296,9.904-48.528,19.828l-13.496-13.496c-1.556-1.556-4.1-1.556-5.656,0
	l-22.628,22.628c-1.416,1.416-1.476,3.616-0.316,5.176l8.44,21.36c-7.64,12.408-13.116,26.284-15.828,41.144H120c-2.2,0-4,1.8-4,4
	v2.048v2.048v27.912v2.048v1.952l95.816,233.788c14.36,2.5,29.108,3.88,44.184,3.88C341.744,512,417.58,469.804,464.036,405.092z"/>
<path style="fill:#F5F5F5;" d="M392,234.332h-17.988c-3.284-17.996-10.568-34.584-20.916-48.812l13.216-13.212
	c1.556-1.556,1.556-4.1,0-5.656l-22.628-22.628c-1.556-1.556-4.1-1.556-5.656,0l-13.496,13.496
	c-14.236-9.924-30.716-16.836-48.532-19.828v-19.36c0-2.2-1.8-4-4-4h-32c-2.2,0-4,1.8-4,4v19.356
	c-17.816,2.992-34.296,9.904-48.528,19.828l-13.496-13.496c-1.556-1.556-4.1-1.556-5.656,0l-22.628,22.628
	c-1.556,1.556-1.556,4.1,0,5.656l13.212,13.212c-10.348,14.232-17.632,30.82-20.916,48.812H120c-2.2,0-4,1.8-4,4v32c0,2.2,1.8,4,4,4
	h17.392c2.832,18.46,9.892,35.516,20.124,50.196l-11.828,11.828c-1.556,1.556-1.556,4.1,0,5.656l22.628,22.628
	c1.556,1.556,4.1,1.556,5.656,0l11.544-11.544c14.668,10.664,31.844,18.084,50.48,21.212v16.028c0,2.2,1.8,4,4,4h32c2.2,0,4-1.8,4-4
	v-16.024c18.636-3.128,35.808-10.544,50.48-21.216l11.548,11.552c1.556,1.556,4.1,1.556,5.656,0l22.628-22.628
	c1.556-1.556,1.556-4.1,0-5.656l-11.828-11.828c10.24-14.68,17.292-31.736,20.12-50.196H392c2.2,0,4-1.8,4-4v-32
	C396,236.132,394.2,234.332,392,234.332z M256,314.332c-33.136,0-60-26.864-60-60s26.864-60,60-60s60,26.864,60,60
	S289.136,314.332,256,314.332z"/>
<path style="fill:#E16B5A;" d="M256,342.332c-48.524,0-88-39.476-88-88s39.476-88,88-88s88,39.476,88,88
	S304.524,342.332,256,342.332z M256,182.332c-39.7,0-72,32.3-72,72s32.3,72,72,72s72-32.3,72-72S295.7,182.332,256,182.332z"/>
<g>
</g>
<g>
</g>
<g>
</g>
<g>
</g>
<g>
</g>
<g>
</g>
<g>
</g>
<g>
</g>
<g>
</g>
<g>
</g>
<g>
</g>
<g>
</g>
<g>
</g>
<g>
</g>
<g>
</g>
</svg>
