<?xml version="1.0" encoding="iso-8859-1"?>
<!-- Generator: Adobe Illustrator 19.0.0, SVG Export Plug-In . SVG Version: 6.00 Build 0)  -->
<svg version="1.1" id="Layer_1" xmlns="http://www.w3.org/2000/svg" xmlns:xlink="http://www.w3.org/1999/xlink" x="0px" y="0px"
	 viewBox="0 0 512.14 512.14" style="enable-background:new 0 0 512.14 512.14;" xml:space="preserve">
<circle style="fill:#C2D5D8;" cx="256.07" cy="256" r="256"/>
<path style="fill:#B7C9CC;" d="M501.734,327.192c-0.252-0.688-0.524-1.364-0.82-2.036c-0.252-0.696-0.532-1.384-0.836-2.064
	c-0.252-0.688-0.524-1.368-0.82-2.04c-0.252-0.7-0.532-1.384-0.836-2.064c-0.252-0.688-0.524-1.364-0.82-2.04
	c-0.252-0.696-0.532-1.384-0.836-2.064c-0.252-0.688-0.524-1.364-0.82-2.036c-0.252-0.692-0.528-1.376-0.828-2.052
	c-0.252-0.688-0.524-1.36-0.82-2.032c-0.252-0.696-0.532-1.392-0.828-2.072c-0.252-0.7-0.536-1.384-0.836-2.064
	c-0.252-0.688-0.528-1.368-0.82-2.04c-0.252-0.696-0.536-1.384-0.836-2.064c-0.252-0.688-0.528-1.364-0.82-2.036
	c-0.252-0.7-0.532-1.388-0.836-2.068c-0.252-0.688-0.524-1.36-0.82-2.032c-0.252-0.696-0.532-1.38-0.828-2.056
	c-0.252-0.7-0.532-1.384-0.836-2.064c-0.252-0.688-0.524-1.368-0.82-2.04c-0.252-0.696-0.532-1.384-0.836-2.064
	c-0.252-0.688-0.524-1.364-0.82-2.036c-0.252-0.7-0.532-1.388-0.836-2.068c-0.252-0.688-0.524-1.364-0.82-2.036
	c-0.252-0.696-0.532-1.384-0.836-2.064c-0.252-0.676-0.516-1.344-0.804-2.004c-0.256-0.704-0.54-1.4-0.84-2.084
	c-0.252-0.696-0.536-1.384-0.836-2.064c-0.252-0.688-0.528-1.364-0.82-2.04c-0.252-0.696-0.532-1.384-0.836-2.064
	c-0.252-0.688-0.524-1.364-0.82-2.036c-0.252-0.696-0.532-1.384-0.836-2.068c-0.252-0.688-0.524-1.36-0.82-2.032
	c-0.252-0.704-0.532-1.388-0.836-2.068c-0.252-0.688-0.524-1.364-0.82-2.036c-0.252-0.696-0.532-1.384-0.836-2.064
	c-0.252-0.688-0.524-1.368-0.82-2.04c-0.252-0.692-0.528-1.376-0.828-2.052c-0.252-0.696-0.532-1.388-0.836-2.068
	c-0.252-0.688-0.524-1.36-0.816-2.032c-0.252-0.688-0.528-1.364-0.82-2.036c-0.252-0.696-0.536-1.388-0.836-2.068
	c-0.252-0.696-0.532-1.384-0.836-2.064c-0.252-0.692-0.524-1.368-0.82-2.04c-0.252-0.7-0.532-1.384-0.836-2.064
	c-0.252-0.688-0.524-1.368-0.82-2.04c-0.252-0.688-0.524-1.376-0.828-2.052c-0.252-0.7-0.532-1.384-0.836-2.064
	c-0.252-0.692-0.524-1.364-0.82-2.036c-0.252-0.696-0.532-1.384-0.836-2.068c-0.252-0.688-0.524-1.364-0.82-2.036
	c-0.252-0.7-0.532-1.384-0.836-2.064c-0.252-0.688-0.524-1.368-0.816-2.04c-0.252-0.696-0.536-1.384-0.84-2.064
	c-0.252-0.688-0.524-1.364-0.816-2.036c-0.252-0.684-0.52-1.356-0.812-2.02c-0.252-0.712-0.544-1.408-0.848-2.092
	c-0.252-0.688-0.524-1.364-0.82-2.036c-0.252-0.7-0.532-1.388-0.836-2.068c-0.252-0.688-0.524-1.36-0.82-2.032
	c-0.252-0.7-0.532-1.388-0.836-2.068c-0.252-0.688-0.524-1.364-0.82-2.036c-0.252-0.704-0.532-1.384-0.836-2.064
	c-0.252-0.692-0.524-1.368-0.82-2.04c-0.252-0.692-0.528-1.376-0.828-2.052c-0.252-0.7-0.532-1.388-0.836-2.068
	c-0.252-0.688-0.524-1.364-0.82-2.036c-0.252-0.696-0.532-1.384-0.836-2.064c-0.252-0.692-0.524-1.364-0.82-2.036
	c-0.252-0.704-0.532-1.388-0.836-2.068c-0.248-0.676-0.512-1.344-0.804-2.004c-0.252-0.708-0.54-1.408-0.844-2.092
	c-0.252-0.688-0.528-1.36-0.82-2.032c-0.252-0.704-0.536-1.388-0.836-2.068c-0.252-0.688-0.528-1.364-0.82-2.036
	c-0.252-0.696-0.532-1.376-0.828-2.056c-0.252-0.7-0.532-1.384-0.836-2.064c-1.552-4.252-3.984-8.236-7.388-11.632l-79.204-79.116
	c-12.476-12.472-32.776-12.48-45.252,0l-79.196,79.196c-9.632,9.632-11.796,23.916-6.564,35.668
	c0.252,0.692,0.528,1.364,0.824,2.036c0.252,0.696,0.528,1.376,0.828,2.056c0.252,0.696,0.532,1.384,0.832,2.064
	c0.252,0.688,0.528,1.368,0.824,2.04c0.252,0.696,0.532,1.384,0.832,2.064c0.248,0.676,0.516,1.34,0.804,2
	c0.256,0.708,0.544,1.408,0.844,2.092c0.252,0.688,0.532,1.368,0.828,2.04c0.252,0.696,0.532,1.384,0.828,2.064
	c0.252,0.688,0.532,1.364,0.828,2.036c0.252,0.7,0.532,1.388,0.828,2.068c0.252,0.688,0.532,1.364,0.828,2.036
	c0.252,0.692,0.524,1.376,0.828,2.052c0.252,0.696,0.532,1.384,0.828,2.064c0.252,0.688,0.532,1.368,0.828,2.04
	c0.252,0.696,0.532,1.384,0.828,2.064c0.252,0.688,0.532,1.368,0.828,2.04c0.252,0.696,0.532,1.384,0.828,2.064
	c0.252,0.688,0.532,1.364,0.824,2.036c0.252,0.696,0.536,1.384,0.832,2.068c0.252,0.672,0.516,1.336,0.808,2
	c0.252,0.704,0.536,1.4,0.84,2.084c0.252,0.696,0.532,1.384,0.832,2.064c0.252,0.692,0.528,1.364,0.824,2.036
	c0.252,0.696,0.532,1.388,0.832,2.068c0.076,0.196,0.132,0.396,0.208,0.584l-8.692,8.752l-11.308-11.316l-16.968-16.964
	c-12.476-12.476-32.776-12.484-45.256,0L80.71,306.916c-9.632,9.628-11.792,23.916-6.564,35.664c0.252,0.688,0.532,1.368,0.828,2.04
	c0.252,0.692,0.524,1.376,0.828,2.052c0.252,0.696,0.532,1.388,0.828,2.068c0.252,0.688,0.532,1.36,0.828,2.032
	c0.252,0.7,0.532,1.388,0.828,2.068c0.252,0.676,0.516,1.34,0.808,2c0.252,0.708,0.544,1.412,0.844,2.096
	c0.252,0.688,0.528,1.364,0.824,2.036c0.252,0.696,0.532,1.384,0.832,2.064c0.252,0.692,0.528,1.364,0.824,2.036
	c0.252,0.696,0.532,1.384,0.832,2.068c0.252,0.688,0.528,1.364,0.824,2.036c0.252,0.692,0.528,1.376,0.828,2.056
	c0.252,0.696,0.532,1.384,0.832,2.064c0.252,0.688,0.528,1.364,0.824,2.036c0.252,0.696,0.532,1.384,0.832,2.068
	c0.252,0.688,0.528,1.36,0.824,2.032c0.252,0.696,0.532,1.388,0.832,2.068c0.252,0.688,0.528,1.364,0.824,2.036
	c0.252,0.696,0.532,1.384,0.832,2.064c0.248,0.68,0.516,1.344,0.808,2c0.252,0.708,0.536,1.404,0.836,2.084
	c0.252,0.696,0.536,1.384,0.836,2.064c0.252,0.688,0.528,1.368,0.82,2.04c0.252,0.696,0.536,1.384,0.836,2.064
	c0.252,0.688,0.524,1.364,0.82,2.036c0.252,0.7,0.532,1.388,0.836,2.068c0.252,0.688,0.524,1.364,0.82,2.036
	c0.252,0.696,0.532,1.384,0.836,2.064c0.252,0.692,0.524,1.364,0.82,2.036c0.252,0.696,0.532,1.38,0.828,2.056
	c0.252,0.696,0.532,1.384,0.836,2.064c0.252,0.688,0.524,1.368,0.82,2.04c0.252,0.696,0.532,1.384,0.836,2.064
	c0.252,0.688,0.524,1.364,0.82,2.036c0.252,0.684,0.524,1.36,0.816,2.028c0.252,0.704,0.536,1.392,0.836,2.072
	c0.252,0.7,0.536,1.388,0.832,2.068c0.252,0.688,0.532,1.364,0.824,2.036c0.252,0.696,0.528,1.376,0.828,2.056
	c0.252,0.696,0.532,1.384,0.832,2.064c0.252,0.688,0.528,1.364,0.824,2.036c0.252,0.7,0.532,1.388,0.832,2.068
	c0.252,0.688,0.528,1.364,0.824,2.036c0.252,0.696,0.532,1.384,0.832,2.064c0.252,0.692,0.528,1.364,0.824,2.036
	c0.252,0.696,0.532,1.384,0.832,2.068c0.252,0.688,0.528,1.364,0.824,2.036c0.252,0.696,0.532,1.384,0.832,2.064
	c0.252,0.688,0.528,1.368,0.824,2.04c0.248,0.68,0.516,1.352,0.808,2.016c0.256,0.708,0.544,1.408,0.844,2.092
	c0.252,0.688,0.532,1.368,0.828,2.04c0.252,0.696,0.532,1.384,0.828,2.064c0.252,0.688,0.532,1.364,0.828,2.036
	c0.252,0.696,0.532,1.388,0.828,2.068c0.252,0.688,0.532,1.36,0.828,2.032c0.252,0.7,0.532,1.388,0.828,2.068
	c0.252,0.688,0.532,1.364,0.828,2.036c0.252,0.696,0.524,1.376,0.828,2.056c0.252,0.696,0.532,1.384,0.828,2.064
	c0.252,0.688,0.532,1.364,0.828,2.036c0.252,0.7,0.532,1.388,0.828,2.068c0.252,0.688,0.532,1.364,0.828,2.036
	c0.252,0.696,0.532,1.384,0.828,2.064c0.252,0.692,0.532,1.364,0.824,2.036c0.044,0.12,0.096,0.244,0.144,0.36
	c37.468,21.492,80.852,33.844,127.14,33.844c116.548,0,214.84-77.916,245.796-184.476
	C501.822,327.416,501.782,327.3,501.734,327.192z"/>
<path style="fill:#E16B5A;" d="M306.986,80.636l-79.196,79.196c-12.484,12.48-12.476,32.776,0,45.252l16.968,16.968l45.252,45.252
	l2.828,2.828l14.14,14.144c12.476,12.468,32.776,12.476,45.256,0l79.196-79.204c12.476-12.476,12.472-32.776,0-45.252
	l-79.196-79.188C339.762,68.164,319.462,68.156,306.986,80.636z M408.806,182.46l-79.196,79.196l-14.14-14.14l-2.828-2.832
	l-45.256-45.252l-16.968-16.964l79.196-79.2L408.806,182.46z"/>
<rect x="246.669" y="217.378" transform="matrix(0.7071 0.7071 -0.7071 0.7071 246.643 -128.6942)" style="fill:#CC6152;" width="63.999" height="32"/>
<path style="fill:#E16B5A;" d="M159.902,227.72l-79.196,79.196c-12.48,12.476-12.472,32.776,0,45.252l79.196,79.2
	c12.476,12.472,32.776,12.476,45.252,0l79.196-79.2c12.476-12.476,12.476-32.78,0-45.252l-16.968-16.968l-45.248-45.26
	l-16.968-16.968C192.678,215.244,172.382,215.236,159.902,227.72z M244.758,312.572l16.968,16.968l-79.196,79.196l-79.196-79.196
	l79.196-79.196l16.968,16.968L244.758,312.572z"/>
<rect x="201.501" y="262.639" transform="matrix(-0.7071 -0.7071 0.7071 -0.7071 201.5826 640.7687)" style="fill:#CC6152;" width="63.995" height="31.992"/>
<path style="fill:#FFD464;" d="M329.61,205.088L205.162,329.536c-6.252,6.248-16.388,6.248-22.628,0
	c-6.252-6.252-6.252-16.38,0-22.628l124.448-124.444c6.252-6.252,16.384-6.252,22.624,0
	C335.85,188.708,335.85,198.84,329.61,205.088z"/>
<g>
</g>
<g>
</g>
<g>
</g>
<g>
</g>
<g>
</g>
<g>
</g>
<g>
</g>
<g>
</g>
<g>
</g>
<g>
</g>
<g>
</g>
<g>
</g>
<g>
</g>
<g>
</g>
<g>
</g>
</svg>
