<?xml version="1.0" encoding="iso-8859-1"?>
<!-- Generator: Adobe Illustrator 19.0.0, SVG Export Plug-In . SVG Version: 6.00 Build 0)  -->
<svg version="1.1" id="Layer_1" xmlns="http://www.w3.org/2000/svg" xmlns:xlink="http://www.w3.org/1999/xlink" x="0px" y="0px"
	 viewBox="0 0 512 512" style="enable-background:new 0 0 512 512;" xml:space="preserve">
<circle style="fill:#88C5CC;" cx="256" cy="256" r="256"/>
<path style="fill:#80B9BF;" d="M501.9,327.168c-0.124-0.304-0.22-0.62-0.368-0.916c-0.22-0.716-0.492-1.4-0.832-2.052
	c-0.216-0.712-0.488-1.396-0.824-2.048c-0.22-0.716-0.492-1.404-0.828-2.052c-0.22-0.712-0.492-1.4-0.828-2.048
	c-0.22-0.72-0.492-1.404-0.828-2.06c-0.22-0.716-0.492-1.396-0.828-2.04c-0.216-0.724-0.492-1.404-0.828-2.06
	c-0.216-0.708-0.484-1.388-0.82-2.032c-0.22-0.724-0.492-1.412-0.836-2.068c-0.216-0.716-0.484-1.404-0.828-2.052
	c-0.216-0.72-0.484-1.4-0.828-2.052c-0.216-0.716-0.484-1.4-0.828-2.052c-0.212-0.712-0.484-1.4-0.82-2.048
	c-0.22-0.72-0.492-1.404-0.836-2.06c-0.212-0.712-0.484-1.392-0.82-2.04c-0.22-0.724-0.492-1.404-0.836-2.06
	c-0.212-0.712-0.484-1.4-0.828-2.048c-0.212-0.72-0.484-1.4-0.824-2.052c-0.216-0.716-0.488-1.404-0.828-2.052
	c-0.216-0.712-0.488-1.4-0.828-2.048c-0.216-0.72-0.488-1.404-0.828-2.056c-0.216-0.712-0.488-1.396-0.824-2.044
	c-0.22-0.724-0.492-1.404-0.832-2.06c-0.216-0.704-0.48-1.384-0.816-2.024c-0.22-0.728-0.492-1.416-0.832-2.076
	c-0.224-0.716-0.492-1.404-0.832-2.052c-0.22-0.712-0.488-1.4-0.824-2.048c-0.22-0.72-0.492-1.404-0.832-2.056
	c-0.216-0.716-0.488-1.4-0.824-2.048c-0.22-0.72-0.492-1.4-0.832-2.056c-0.216-0.712-0.488-1.396-0.824-2.048
	c-0.22-0.716-0.488-1.4-0.832-2.052c-0.216-0.716-0.484-1.396-0.82-2.044c-0.224-0.724-0.492-1.408-0.836-2.064
	c-0.216-0.712-0.484-1.392-0.82-2.04c-0.22-0.72-0.492-1.404-0.828-2.056c-0.224-0.716-0.492-1.4-0.836-2.052
	c-0.216-0.712-0.484-1.396-0.82-2.048c-0.22-0.708-0.484-1.388-0.82-2.032c-0.224-0.724-0.492-1.412-0.836-2.068
	c-0.22-0.716-0.492-1.4-0.828-2.052c-0.22-0.712-0.492-1.396-0.828-2.044c-0.22-0.72-0.492-1.404-0.828-2.06
	c-0.22-0.712-0.492-1.392-0.828-2.04c-0.212-0.72-0.492-1.4-0.828-2.056c-0.22-0.716-0.492-1.4-0.828-2.052
	c-0.22-0.716-0.488-1.396-0.828-2.048c-0.22-0.716-0.488-1.4-0.828-2.052c-0.22-0.712-0.488-1.396-0.828-2.048
	c-0.22-0.716-0.488-1.4-0.828-2.052c-0.22-0.716-0.488-1.396-0.828-2.048c-0.22-0.716-0.488-1.4-0.828-2.052
	c-0.22-0.712-0.488-1.396-0.824-2.044c-0.216-0.712-0.484-1.392-0.82-2.036c-0.216-0.724-0.492-1.412-0.836-2.072
	c-0.216-0.712-0.488-1.396-0.824-2.048c-0.22-0.716-0.492-1.396-0.832-2.048c-0.216-0.716-0.488-1.4-0.824-2.052
	c-0.22-0.716-0.492-1.396-0.832-2.052c-0.216-0.712-0.488-1.396-0.824-2.048c-0.22-0.716-0.492-1.4-0.832-2.052
	c-0.216-0.716-0.488-1.396-0.824-2.048c-0.22-0.716-0.492-1.396-0.832-2.048c-0.216-0.716-0.488-1.396-0.824-2.048
	c-0.22-0.716-0.492-1.396-0.828-2.048c-0.22-0.716-0.492-1.396-0.828-2.048c-0.22-0.716-0.492-1.396-0.828-2.048
	c-0.22-0.716-0.492-1.396-0.828-2.048c-0.216-0.708-0.484-1.388-0.82-2.036c-0.22-0.72-0.492-1.408-0.836-2.064
	c-0.216-0.716-0.484-1.396-0.828-2.048c-0.216-0.716-0.484-1.396-0.828-2.048c-0.216-0.716-0.484-1.396-0.828-2.048
	c-0.212-0.716-0.484-1.396-0.828-2.048c-0.212-0.716-0.484-1.396-0.828-2.048C437.944,167.644,433.408,164,428,164h-14.6v-1.548
	h-0.828v-2.048h-0.828v-2.048h-0.828v-2.048h-0.828v-2.048h-0.828v-2.052h-0.828v-2.048H407.6v-2.048h-0.828v-2.048h-0.828v-2.048
	h-0.828v-2.048h-0.828v-2.048h-0.828v-2.048h-0.828v-2.048h-0.824v-2.052h-0.828v-2.048h-0.828v-2.048h-0.832v-2.048h-0.828v-2.048
	h-0.828v-2.048h-0.828v-2.048h-0.828v-2.048h-0.828v-2.048h-0.828v-2.048h-0.828v-2.052h-0.828v-2.048h-0.828v-2.048h-0.828v-2.048
	h-0.828v-2.048h-0.82v-2.048h-0.828V101h-0.828v-2.048h-0.828v-2.048h-0.828v-2.052h-0.828v-2.048h-0.828v-2.048h-0.828v-2.048
	h-0.836V86.66h-0.828v-2.048h-0.828v-2.048h-0.828v-2.048h-0.828v-2.048h-0.828V76.42h-0.824v-2.052h-0.824V72.32h-0.828v-2.048
	h-0.828v-2.048h-0.828v-2.048h-0.828v-2.048h-0.828V62.08H372V60h-8H148h-8v104H76c-6.6,0-12,5.4-12,12v132
	c0,1.98,0.532,3.824,1.392,5.472c0.216,0.716,0.488,1.396,0.824,2.044c0.216,0.712,0.488,1.392,0.824,2.048
	c0.216,0.72,0.492,1.408,0.832,2.064c0.216,0.716,0.488,1.396,0.824,2.044c0.216,0.724,0.492,1.404,0.832,2.06
	c0.216,0.712,0.488,1.396,0.824,2.04c0.216,0.724,0.492,1.408,0.832,2.06c0.216,0.716,0.488,1.396,0.824,2.044
	c0.216,0.72,0.492,1.408,0.832,2.056c0.216,0.716,0.484,1.392,0.82,2.04c0.216,0.72,0.492,1.408,0.832,2.064
	c0.216,0.72,0.488,1.4,0.824,2.048c0.216,0.712,0.492,1.4,0.828,2.052c0.216,0.72,0.492,1.404,0.832,2.056
	c0.216,0.716,0.488,1.396,0.824,2.044c0.216,0.72,0.492,1.408,0.832,2.056c0.216,0.716,0.484,1.392,0.82,2.04
	c0.216,0.72,0.492,1.408,0.832,2.064c0.216,0.72,0.488,1.4,0.824,2.048c0.216,0.72,0.492,1.404,0.832,2.056
	c0.216,0.716,0.488,1.396,0.824,2.044c0.216,0.716,0.492,1.404,0.828,2.052c0.216,0.724,0.492,1.408,0.832,2.06
	c0.216,0.716,0.488,1.392,0.824,2.044c0.216,0.72,0.488,1.4,0.828,2.056c0.216,0.712,0.488,1.396,0.828,2.048
	c0.216,0.72,0.492,1.404,0.832,2.056c0.216,0.716,0.488,1.4,0.824,2.044c0.216,0.724,0.492,1.404,0.832,2.06
	c0.216,0.716,0.488,1.396,0.824,2.044c0.216,0.716,0.492,1.4,0.828,2.052c0.216,0.72,0.492,1.408,0.832,2.064
	c0.216,0.708,0.484,1.384,0.82,2.032c0.216,0.72,0.492,1.408,0.832,2.064c0.216,0.72,0.488,1.4,0.824,2.048
	c0.216,0.72,0.492,1.404,0.832,2.056c0.216,0.716,0.488,1.396,0.824,2.044c0.216,0.72,0.492,1.404,0.832,2.056
	c0.216,0.716,0.488,1.396,0.828,2.044c0.216,0.72,0.484,1.4,0.824,2.048c0.216,0.72,0.492,1.408,0.832,2.064
	c0.216,0.72,0.488,1.4,0.824,2.048c0.216,0.72,0.492,1.404,0.832,2.056c0.216,0.716,0.488,1.396,0.824,2.044
	c0.216,0.724,0.492,1.404,0.832,2.06c0.216,0.712,0.488,1.392,0.824,2.04c0.216,0.724,0.492,1.408,0.832,2.064
	c0.216,0.708,0.484,1.384,0.82,2.032c0.216,0.72,0.492,1.408,0.832,2.064c0.216,0.72,0.488,1.4,0.824,2.048
	c0.216,0.716,0.492,1.4,0.828,2.052c0.216,0.724,0.492,1.404,0.832,2.06c0.216,0.716,0.488,1.392,0.824,2.044
	c0.216,0.72,0.492,1.404,0.832,2.06c0.216,0.712,0.484,1.384,0.82,2.032c0.216,0.72,0.492,1.412,0.832,2.064
	c0.216,0.72,0.488,1.4,0.824,2.048c0.216,0.72,0.492,1.408,0.832,2.056c0.216,0.72,0.488,1.4,0.824,2.048
	c0.216,0.716,0.492,1.4,0.828,2.052c0.216,0.72,0.492,1.404,0.832,2.06c0.216,0.712,0.488,1.392,0.824,2.04
	c0.216,0.72,0.488,1.404,0.828,2.056c0.216,0.712,0.488,1.396,0.828,2.048c0.216,0.72,0.492,1.408,0.832,2.056
	c0.216,0.72,0.488,1.4,0.824,2.048c0.216,0.72,0.492,1.404,0.832,2.056c0.216,0.72,0.488,1.392,0.824,2.048
	c0.216,0.712,0.492,1.4,0.832,2.048c0.216,0.72,0.488,1.404,0.828,2.056c0.216,0.712,0.488,1.4,0.828,2.048
	c0.216,0.72,0.492,1.408,0.832,2.056c0.216,0.72,0.488,1.4,0.824,2.048c0.216,0.72,0.492,1.404,0.832,2.056
	c0.216,0.72,0.488,1.392,0.824,2.048c0.216,0.72,0.492,1.404,0.832,2.06c0.216,0.712,0.488,1.392,0.824,2.04
	c0.216,0.716,0.488,1.396,0.824,2.044c0.216,0.728,0.492,1.408,0.832,2.064c0.216,0.72,0.488,1.4,0.824,2.048
	c0.216,0.72,0.492,1.408,0.832,2.056c0.108,0.36,0.272,0.68,0.408,1.016C169.396,500.548,211.356,512,256,512
	C372.676,512,471.056,433.916,501.9,327.168z"/>
<path style="fill:#263740;" d="M144,320H76c-6.6,0-12-5.4-12-12V176c0-6.6,5.4-12,12-12h352c6.6,0,12,5.4,12,12v132
	c0,6.6-5.4,12-12,12h-64"/>
<rect x="120" y="196" style="fill:#1E2C33;" width="272" height="36"/>
<polygon style="fill:#FFFBF2;" points="352,436 223.98,436 156,368 156,212 352,212 "/>
<rect x="140" y="60" style="fill:#E6E6E6;" width="232" height="104"/>
<rect x="156" y="132" style="fill:#FFFBF2;" width="196" height="32"/>
<g>
	<polygon style="fill:#CCCCCC;" points="148,60 140,60 140,164 160,164 160,144 148,136 	"/>
	<polygon style="fill:#CCCCCC;" points="364,60 372,60 372,164 352,164 352,144 364,136 	"/>
</g>
<polygon style="fill:#E6DECF;" points="224,436 156,368 224,368 "/>
<g>
	<path style="fill:#CCCCCC;" d="M252,244h-72c-2.208,0-4-1.792-4-4s1.792-4,4-4h72c2.208,0,4,1.792,4,4S254.208,244,252,244z"/>
	<path style="fill:#CCCCCC;" d="M204,284h-24c-2.208,0-4-1.792-4-4s1.792-4,4-4h24c2.208,0,4,1.792,4,4S206.208,284,204,284z"/>
	<path style="fill:#CCCCCC;" d="M284,264H180c-2.208,0-4-1.792-4-4s1.792-4,4-4h104c2.208,0,4,1.792,4,4S286.208,264,284,264z"/>
</g>
<circle style="fill:#96E652;" cx="420" cy="180" r="4"/>
<circle style="fill:#CC584C;" cx="404" cy="180" r="4"/>
<g>
</g>
<g>
</g>
<g>
</g>
<g>
</g>
<g>
</g>
<g>
</g>
<g>
</g>
<g>
</g>
<g>
</g>
<g>
</g>
<g>
</g>
<g>
</g>
<g>
</g>
<g>
</g>
<g>
</g>
</svg>
