<?xml version="1.0" encoding="iso-8859-1"?>
<!-- Generator: Adobe Illustrator 19.0.0, SVG Export Plug-In . SVG Version: 6.00 Build 0)  -->
<svg version="1.1" id="Layer_1" xmlns="http://www.w3.org/2000/svg" xmlns:xlink="http://www.w3.org/1999/xlink" x="0px" y="0px"
	 viewBox="0 0 512 512" style="enable-background:new 0 0 512 512;" xml:space="preserve">
<circle style="fill:#88C5CC;" cx="256" cy="256" r="256"/>
<path style="fill:#F5F5F5;" d="M436,364c0,8.8-7.2,16-16,16H108c-8.8,0-16-7.2-16-16V132c0-8.8,7.2-16,16-16h312c8.8,0,16,7.2,16,16
	V364z"/>
<path style="fill:#E6E6E6;" d="M112,368c-4.4,0-8-3.6-8-8V164c0-4.4,3.6-8,8-8h304c4.4,0,8,3.6,8,8v196c0,4.4-3.6,8-8,8H112z"/>
<circle style="fill:#E16B5A;" cx="112" cy="136" r="8"/>
<circle style="fill:#FFD464;" cx="136" cy="136" r="8"/>
<circle style="fill:#74B340;" cx="160" cy="136" r="8"/>
<path style="fill:#E6E6E6;" d="M396,140c0,2.2-1.8,4-4,4H180c-2.2,0-4-1.8-4-4v-8c0-2.2,1.8-4,4-4h212c2.2,0,4,1.8,4,4V140z"/>
<rect x="188" y="176" style="fill:#CCCCCC;" width="8" height="168"/>
<path style="fill:#B3B3B3;" d="M188,279.428c1.284,0.336,2.608,0.572,4,0.572s2.716-0.236,4-0.572V248.56
	c-1.284-0.328-2.608-0.568-4-0.568s-2.716,0.24-4,0.568V279.428z"/>
<path style="fill:#F5F5F5;" d="M192,276c-8.824,0-16-7.176-16-16s7.176-16,16-16s16,7.176,16,16S200.824,276,192,276z"/>
<circle style="fill:#88C5CC;" cx="192" cy="260" r="8"/>
<rect x="236" y="176" style="fill:#CCCCCC;" width="8" height="168"/>
<path style="fill:#B3B3B3;" d="M236,219.428c1.284,0.336,2.608,0.572,4,0.572s2.716-0.236,4-0.572V188.56
	c-1.284-0.328-2.608-0.568-4-0.568s-2.716,0.24-4,0.568V219.428z"/>
<path style="fill:#F5F5F5;" d="M240,216c-8.824,0-16-7.176-16-16s7.176-16,16-16s16,7.176,16,16S248.824,216,240,216z"/>
<circle style="fill:#E16B5A;" cx="240" cy="200" r="8"/>
<rect x="284" y="176" style="fill:#CCCCCC;" width="8" height="168"/>
<path style="fill:#B3B3B3;" d="M284,339.428c1.284,0.336,2.608,0.572,4,0.572s2.716-0.236,4-0.572V308.56
	c-1.284-0.328-2.608-0.568-4-0.568s-2.716,0.24-4,0.568V339.428z"/>
<path style="fill:#F5F5F5;" d="M288,336c-8.824,0-16-7.176-16-16s7.176-16,16-16s16,7.176,16,16S296.824,336,288,336z"/>
<circle style="fill:#F2CF61;" cx="288" cy="320" r="8"/>
<rect x="332" y="176" style="fill:#CCCCCC;" width="8" height="168"/>
<path style="fill:#B3B3B3;" d="M332,307.428c1.284,0.336,2.608,0.572,4,0.572s2.716-0.236,4-0.572V276.56
	c-1.284-0.328-2.608-0.568-4-0.568s-2.716,0.24-4,0.568V307.428z"/>
<path style="fill:#F5F5F5;" d="M336,304c-8.824,0-16-7.176-16-16s7.176-16,16-16s16,7.176,16,16S344.824,304,336,304z"/>
<circle style="fill:#96E652;" cx="336" cy="288" r="8"/>
<g>
</g>
<g>
</g>
<g>
</g>
<g>
</g>
<g>
</g>
<g>
</g>
<g>
</g>
<g>
</g>
<g>
</g>
<g>
</g>
<g>
</g>
<g>
</g>
<g>
</g>
<g>
</g>
<g>
</g>
</svg>
